<?xml version="1.0" encoding="UTF-8"?>
<svg version="1.1" viewBox="0 0 2048 2048" width="512" height="512" xmlns="http://www.w3.org/2000/svg">
<path transform="translate(0)" d="m0 0h2048v2048h-2048z" fill="#E46326"/>
<path transform="translate(1068,432)" d="m0 0h3l-1 12-6 39-6 31-9 38-7 27-13 43-14 46-8 30-10 37-9 38-5 27-3 34v17l2 11 1 5v3l11-14 13-17 14-18 11-14 20-25 11-14 13-16 8-10 13-16 13-17 10-14 8-13 5-13 3-17v-24l-5-25-7-20-12-25-10-21v-2h6l10 6 13 10 16 15 9 10 11 13 13 18 9 14 9 15 13 25 10 26 7 23 6 29 1 13h2l2 19v52l5 2 7 7 4 5 13 13 7 8 13 15 16 20 11 15 7 10 10 15 12 20 9 16 8 16 9 21 9 24 7 21 7 27 3 16 3 33v44l-3 34-5 26-7 27-8 24-10 23-13 25-10 15-14 19-9 11-5 6h-2l-2 4-11 11-8 7-13 11-17 12-19 12-21 11-18 8-20 8-25 8-25 6-25 5-41 5-37 2h-30l-29-2-28-4-26-6-20-6-25-10-17-8-24-14-16-11-11-8-11-9-11-10-4-3v-2l-4-2v-2h-2l-7-8-7-7-9-11-7-9v-2h-2l-4-6-10-14-8-13-12-21-12-23-11-27-12-36-7-30-3-16-4-33-1-15v-48l2-33 6-40 7-31 9-31 8-24 10-27 12-29 7-14 9-20 10-19 14-26 14-23 12-19 19-28 10-14 21-28 8-10 13-16 9-11 12-14 13-14 9-11 12-12 7-8 43-43 8-7 8-8h2v-2l11-9 8-8 8-7 10-9 9-7 13-11 11-9 17-13z" fill="#F69D16"/>
<path transform="translate(1102,535)" d="m0 0h6l10 6 13 10 16 15 9 10 11 13 13 18 9 14 9 15 13 25 10 26 7 23 6 29 3 22 1 11v49l-4 33-5 28-9 42-13 55-12 44-7 25-2 1-4-3v-2l-4-2-10-9-14-11-13-9-16-8-18-6-26-5-16-1h-23l-16 1-27 4-24 6-21 8-15 9-16 12-16 15-10 10-12 16-8 14-7 15-6 18-4 20-2 17v26l4 27 5 20 6 18 12 25 14 21 11 13 5 5 1 3 4 2 8 8 17 12 12 7 19 8 21 6 14 3 15 2 14 1 26-1 26-4 21-6 20-8 16-9 12-9 10-9 13-13 12-16 9-15 8-16 8-19 7-24 4-22 2-23v-28l-7 6-7 8-12 11-20 15-21 14-17 10-15 8-23 9-20 5-14 2h-18l-18-3-17-6-17-9-11-8-13-11-15-15v-2h13l38-2 36-5 21-5 20-7 19-9 18-11 13-10 11-9 13-12 7-7h2l2-4h2l2-4 13-13 9-11 14-18 10-15 11-18 14-27 10-23 4-11 2-6 3 1 6 14 8 16 7 16 9 23 11 33 8 32 4 26 1 11v34l-3 30-4 24-7 30-12 36-11 26-13 25-14 21-9 12-12 14-19 19-14 11-14 10-15 9-16 8-19 8-21 7-27 6-29 4-12 1h-43l-36-4-29-6-26-8-15-6-16-7-21-12-16-11-16-13-12-11-11-11-9-11-12-15-11-17-12-21-8-16-9-20-10-27-10-35-7-35-4-32v-41l4-29 8-37 2-7 3 1 7 17 8 17 12 21 7 9 5 4 5 1 4-9 2-17 3-46 3-27 4-23 6-25 9-27 12-25 10-16 10-13 11-13 38-38 7-8 11-12 11-14 8-11 10-15 15-25 15-29 10-23 9-24 6-18 1 4-7 30-8 30-17 72-9 43-5 31-1 8v27l3 6 2 2 6-1 7-6 11-14 10-13 13-17 14-18 11-14 20-25 11-14 13-16 8-10 13-16 13-17 10-14 8-13 5-13 3-17v-24l-5-25-7-20-12-25-10-21z" fill="#FEFDFD"/>
<path transform="translate(719,1687)" d="m0 0h617l16 4 11 7 8 8 8 16 2 9v10l-3 13-6 11-9 10-9 6-11 4-8 1h-614l-11-2-14-7-9-8-6-10-4-10-1-4v-16l4-13 6-10 6-7 10-7 11-4z" fill="#FEFDFD"/>
<path transform="translate(902,1552)" d="m0 0h250l14 2 14 7 10 9 7 11 4 13v15l-4 13-5 9-9 10-12 7-11 3h-263l-11-3-11-6-8-7-7-11-4-12-1-13 4-16 6-11 6-7 10-7 9-4z" fill="#FEFDFD"/>
<path transform="translate(1349,1681)" d="m0 0 13 1 1 3 5 1 5 3v2l3 1 4 6 1 3 3 1 2 5 2 1v2l4 2 4 8 2 8h2v8h-2l-1 5 4-1-1 7h-3l1 4v6l-2 3h-2l1 6-1 2h-2l-2 9-9 10h-2v3h-2v2h-2v2l-8 4-3 2-12 1-7 3-3 1-20 1-21-1-1-1h-11l-13-2h-6l2-2 3-1-8-1-16 1h-20v2l-5 1h-7l-1-4-3-1-1 1h-32l-16 2-20 1h-13l-18-1h-4v-2h6l1-2h7l4-1 5-1 3-1 2-1v-2l-2 2h-6v-2l-7 4-3-1 1-2-4 1-7 2-4 1-1 6h-5l1-2-7-2-8-1h-14l-10 1v1l-11-1-1-1h-7l-6-2-1 1-7 1v1h-10l-14-1-3-1v2l11 1v1l-12 2-12-2v-2h6v-3l4-1-1-1-5 3-5-1-2 2h-9v-1l5-1-4-2h5v-2l-3-1 23-1h-76l-11 1-3 1 1 2h-4l5 1h2 10v2l2-1h14l1-1h10l3-1 12 1v1l-11 2h8l3 2-22 2-7-1 1 3h-4l1-2-1-1h-4l-1 2-2 1-7-2h-6l-3-3-1 4-4 1h-12l-3 1-4-1-7-1-5 1-2-3-5-1-2-1v-2h2l-1-3 4-2-3-1v-2l-41 1-1 3-6 1v-3l-1 2-8 1-2 3 2 2-1 1h-21l-1 2h-13l-1 4-18-1-3 2h-6l-2 1h-27l-8-2h-9l-8-1-3-4-7-3-2-1-2-5-4-2-3-6-1-10 7 6 5 5 2-1 6 2v2l7-1 3-2 16 2h614l12-2 14-7 8-8 8-14 3-13v-10l-3-12-7-13-8-8-10-6-10-3 2-1v-2l3-1 1 3 1-4z" fill="#E7762E"/>
<path transform="translate(1162,1539)" d="m0 0 12 2 8 3 11 8 5 7 2 1 2 8h2l2 8h2v2h2l5 11 1 13 1 9-3 12-4 7-6 14-6 5-2 5-5 3-3 3-1 4-8 3 1 3 4 2 1 4-2 2v-2l-5 1-4 2-2-1v-2h-10l-4-1-9 1-3-1-2 1h-11l-2 1-2-1v-2l-8 2-1 2-3-2-13-1-4-1v-2l-3 1h-7l-3-2v2l-4 1-2-2-1 1h-6l-7-3v-1l10-1 10-2 2-2h15l4-1v2l13-1v-6l-4-2v6l-2 1-2-1v-2h2v-2l-5-1-6-1-4-2 1-1h24l2 1v2l-3 1 3 2v2l4-1 1-2 7-1-7-1-1-2 14-1 5 1 8-1v2l2 1 3 1 3-3-1-2 5-1v-2l-2-1 12-6 9-8 6-9 4-11 1-5v-15l-4-13-7-11-10-9-13-6-14-2-53-1v-1l19-1-4-2-7-1v-1l11-2 10-1h13l3-1 13-1z" fill="#E7772E"/>
<path transform="translate(675,1772)" d="m0 0 7 6 5 5 2-1 6 2v2l7-1 3-2 16 2h620v1l-5 1-408 1-11 1-3 1 1 2h-4l5 1h2 10v2l2-1h14l1-1h10l3-1 12 1v1l-11 2h8l3 2-22 2-7-1 1 3h-4l1-2-1-1h-4l-1 2-2 1-7-2h-6l-3-3-1 4-4 1h-12l-3 1-4-1-7-1-5 1-2-3-5-1-2-1v-2h2l-1-3 4-2-3-1v-2l-41 1-1 3-6 1v-3l-1 2-8 1-2 3 2 2-1 1h-21l-1 2h-13l-1 4-18-1-3 2h-6l-2 1h-27l-8-2h-9l-8-1-3-4-7-3-2-1-2-5-4-2-3-6z" fill="#EA7F29"/>
<path transform="translate(1206,1704)" d="m0 0 8 1 4 9 6 21 2 10h2l4-16 8-24h21l1 15 1 29v19h-14l-2-43-2 2-13 40h-12l-6-18-6-23v-2h-2v23l-2 21h-14l1-20 3-43z" fill="#E87A2C"/>
<path transform="translate(1e3 1787)" d="m0 0h136v2l3-1h69l16 1h13v3l-7 1-12-2h-3l4 2-4 2-5 3h-32l-16 2-20 1h-13l-18-1h-4v-2h6l1-2h7l4-1 5-1 3-1 2-1v-2l-2 2h-6v-2l-7 4-3-1 1-2-4 1-7 2-4 1-1 6h-5l1-2-7-2-8-1h-14l-10 1v1l-11-1-1-1h-7l-6-2-1 1-7 1v1h-10l-14-1-3-1v2l11 1v1l-12 2-12-2v-2h6v-3l4-1-1-1-5 3-5-1-2 2h-9v-1l5-1-4-2h5v-2l-3-1 23-1z" fill="#E6742D"/>
<path transform="translate(1060,1704)" d="m0 0 14 1 1 23h23l1-23 1-1 14 1v63l-3 1-12-1-1-1v-24l-1-1h-22l-1 26h-15v-63z" fill="#E87B2B"/>
<path transform="translate(911,1704)" d="m0 0h18l6 2 1 1v10l-3 1-6-1h-14l-7 3-5 4-3 6v12l3 7 6 5 6 2h11l1-12-10-1-1-1v-10l7-1h17l2 1v23l-1 10-3 2-12 2h-16l-12-4-10-9-4-8-1-4v-14l4-10 8-9 12-6z" fill="#E87B2B"/>
<path transform="translate(962,1562)" d="m0 0h10l13 2 2 3-3 9-10-1h-12l-10 5-4 6-1 4v10l3 7 5 5 4 2h14l1-12-10-1v-11h25l1 3-1 30-7 3-6 1h-20l-11-4-9-8-5-10-1-5v-8l2-9 5-8 5-5 8-5 5-2z" fill="#E87A2C"/>
<path transform="translate(1016,1563)" d="m0 0h20l4 10 10 32 6 18v4l-16-1-3-8-3-7h-17l-6 16-14-1 1-7 16-51z" fill="#E8792C"/>
<path transform="translate(1145,1704)" d="m0 0h15l3 2 14 43 6 17v2h-17l-5-15-4-1h-11l-3 1-3 9-1 6h-16l1-7 15-47 4-9z" fill="#E87A2C"/>
<path transform="translate(766,1704)" d="m0 0h16l3 2 19 60-1 3-15-1-6-16h-18l-4 16h-16l3-11 16-50z" fill="#E8792C"/>
<path transform="translate(430,1171)" d="m0 0 2 1 1 6 5 2 1-6 3 1 1 7-3 5 1 5-2 5h-3v3h3l2 6-3 1 1 5-1 5-2 3 5 5-2 1 1 3-5 5-3 2 5 2 1 5-1 3 4 5v7l-3 5-2 5 9-2-1 3 2 1-2 5-3 9-2 3h-3l-1 3-1-4-4-1v-2l-3-5h2l-1-3-4-2v-6h2l2-8 2-3h2l-2-3-2 2v-2l-5 3h-2v-8l3-4h1l1-5h-2l-1 2-2-1 1-12h-4l-4-4 2-5h-2v-11l-1-4 2-6h2l-3-6-2-2 6-5 1-8 4 1 2 4h-2v4l1 1h2l2-11z" fill="#E6762E"/>
<path transform="translate(952,1704)" d="m0 0h33l7 1v11l-25 1 1 12 23 1v12h-23l-1 14h26l1 1v11h-42l-1-1v-62z" fill="#E97B2B"/>
<path transform="translate(1081,1562)" d="m0 0h15l8 2 2 3-3 9-7-1-3-1h-7l-6 4 1 5 20 10 7 8 1 3v8l-4 7-6 5-7 3h-19l-9-3v-10l1-1 10 1h12l5-3v-5l-19-10-7-6-2-4v-10l5-8 8-5z" fill="#E87B2B"/>
<path transform="translate(1e3 1704)" d="m0 0h46l4 1v11l-1 1h-17v51h-15l-1-1v-50h-14l-3-1v-11z" fill="#E97C2B"/>
<path transform="translate(813,1705)" d="m0 0h15l1 1v50h26v12l-24 1h-15l-2-1-1-4z" fill="#E87B2B"/>
<path transform="translate(1143,1788)" d="m0 0h69l16 1h13v3l-7 1-12-2h-3l4 2-4 2-5 3h-32l-16 2-20 1h-13l-18-1h-4v-2h6l1-2h7l4-1 5-1 3-1h3v-4z" fill="#E46427"/>
<path transform="translate(1275,1705)" d="m0 0h15l1 18v16l-1 29h-14l-1-2z" fill="#E87A2C"/>
<path transform="translate(329,1148)" d="m0 0 7 2 6-1 3 1 5-1 3 3v6h2l3-1 3 4v3l-3 1-8-1h-9l-10 1 2 4-1 3h-8l-1 4 4 2 4-1 1 3 6-3 5 3 2-2h5l1 5-5 1v-2l-6 2-5 2v-2l-7 1-5-2-4 2-8-3 2-6h-2l-1-7h5l2 3-2 4 3 4 2-4-2-7 1-4-15-1-2-4 5-1 3 1 5-3 6 1-2-6 3-3z" fill="#E6752E"/>
<path transform="translate(872,1787)" d="m0 0h56v1l-11 1-3 1 1 2h-4l5 1h2 10v2l2-1h14l1-1h10l3-1 12 1v1l-11 2h8l3 2-22 2-7-1 1 3h-4l1-2-1-1h-4l-1 2-2 1-7-2h-6l-3-3-1 4-4 1h-12l-3 1-4-1-7-1-5 1-2-3-5-1-2-1v-2h2l-1-3 4-2-3-1z" fill="#E6762E"/>
<path transform="translate(983,794)" d="m0 0h1l1 18v6h-2l1 12 1 2h-2l1 7 4-1v-7l-1-4 3-1 2 6v2l2 1-2 6 10-4 6-6h2l2-2v5l-12 15-12 16-6 7-1-2 1-7-2-4-1-8v-17l3-34z" fill="#E7762E"/>
<path transform="translate(927,1657)" d="m0 0 4 1 1 4h7l-2 1v4h8l2 2-2 3-6-3-2 6 3-1v2h-8l-1 1-12 1-3-1-4 1-12-2-1-4-4-1-1 2-6-1 1-4 11-2 7-2 2-2 7 1v-2l9 1z" fill="#E6762E"/>
<path transform="translate(1094,721)" d="m0 0 4 2-1 4-14 17-13 16-11 14-8 10-11 14-9 11-4 2h-3l2-4 4-6h2l2-4 4-4 1-5 7-8 6-5 4-8 6-6h2v-2h2l2-5 2-2 1-4 5-5 4-2v-2h2l2-5 3-1 2-6h2l1-3h2z" fill="#E77128"/>
<path transform="translate(1e3 1787)" d="m0 0h91v1l-8 1h-53l4 2-1 4-7 1v1h-10l-14-1-3-1v2l11 1v1l-12 2-12-2v-2h6v-3l4-1-1-1-5 3-5-1-2 2h-9v-1l5-1-4-2h5v-2l-3-1 23-1z" fill="#E6762E"/>
<path transform="translate(1140,1792)" d="m0 0 2 1v2l9-2h6v2h5l1-2h11l1 1 7 1 7-1 2-1 8 2v-2h17l-1 4-1 1h-32l-16 2-20 1h-13l-18-1h-4v-2h6l1-2h7l4-1 5-1 3-1z" fill="#E6762E"/>
<path transform="translate(1370,1704)" d="m0 0 2 1v2l3 1 6 12 3-1 5 3 2 7 2 3-2 13-3 6-5 7-2 3-4 2-1 4-4 1-1 3-2-1 2-5 7-14 2-10v-10l-3-12-7-13z" fill="#E7762D"/>
<path transform="translate(314,1322)" d="m0 0 5 2v2l3-3 5 1 3 3 1-2 1-3 4 5-1 3-4 1-3-1-1 2-3 1-1 7-2 2-2-4 2-6-4-1-2 4 3 6h-3l-1 4h-3l-1-8 1-2v-4l-5 1-1 4h2l-1 5-4 4-2-1-1-6 4-6 1-7 5-1 3 1z" fill="#E6762E"/>
<path transform="translate(1381,1035)" d="m0 0 4 4 2 5 1 6 3 3 1 9 3 7 1 4v8l2 12 1 1v14l1 5h2l-1 18-1 41-1 8h-1v-53l-3-33-6-29-8-26z" fill="#E7772F"/>
<path transform="translate(1271,1787)" d="m0 0h9l2 2h6l7-1h8l-1 3 3 2-7 1-1 1h-18l-4 1-4-1h-6l-1-1v1h-9v-2h-11l-1-4h4v2l7-1 2-2 15 1z" fill="#E46327"/>
<path transform="translate(1385,1720)" d="m0 0 4 2 2 7 2 3-2 13-3 6-5 7-2 3-4 2-1 4-4 1-1 3-2-1 2-5 7-12 4-1 2-5 2-2 1-9h3l-2-3v-3l-2-1-2-7z" fill="#E56826"/>
<path transform="translate(1024,1577)" d="m0 0h2l4 11 2 7v5h-13l1-8z" fill="#FEFDFD"/>
<path transform="translate(1165,1649)" d="m0 0h5v2l-4 2v3l-5 2-3-3v-2l-10 2-6-1-8 1 6 2v1h-8l-1 3h-4v-2l-4-2 4-1v-2h-2v-2l33-1z" fill="#E46327"/>
<path transform="translate(1151,1719)" d="m0 0 3 3 4 13v6h-13l2-10z" fill="#FEFDFD"/>
<path transform="translate(773,1719)" d="m0 0h2l5 16v6h-13l4-18z" fill="#FEFDFD"/>
<path transform="translate(1051,776)" d="m0 0 2 2-4 5-7 9h-2v6l-9 11-4 2h-3l2-4 4-6h2l2-4 4-4 1-5 7-8z" fill="#E77227"/>
<path transform="translate(1124,681)" d="m0 0 1 2-1 8-8 11-7 10-2-2 1-6h2l1-6 5-7 3-2 3-7z" fill="#E7772C"/>
<path transform="translate(1096,1563)" d="m0 0h6l4 4-3 9-7-1-3-2-2-4v-5z" fill="#F4971A"/>
<path transform="translate(938,1543)" d="m0 0 1 2 11 1-2 2 4 2h-3v2h-37v-1l22-1-5-2-3-1 1-1 7-1z" fill="#E6762E"/>
<path transform="translate(1233,1730)" d="m0 0h2l2 6 3 3-1 5-4 6-4-1-1-3v-10l1-4h2z" fill="#E56726"/>
<path transform="translate(1204,1609)" d="m0 0h3l-1 6-1 7-6 7-3 2-4-1 5-10 3-5 3-2z" fill="#E56826"/>
<path transform="translate(1370,1704)" d="m0 0 2 1v2l3 1 6 12 3 10v11l-2 8-2 1v-19l-3-12-7-13z" fill="#E66A25"/>
<path transform="translate(366,1148)" d="m0 0 9 2h3l1 2-9 3h-8l-6 1-2-4 3-3z" fill="#E7772F"/>
<path transform="translate(1019,1788)" d="m0 0h68l1 2-33 1h-3l-3-1h-8-3-16z" fill="#E46327"/>
<path transform="translate(357,1165)" d="m0 0 5 5-2 2-6 3-10-2-3-3 4-2 10-1z" fill="#E7772F"/>
<path transform="translate(1063,765)" d="m0 0 1 3-13 16-10 13h-1v-5l5-5 7-9v-2l4-1 1-4 5-5z" fill="#E87223"/>
<path transform="translate(1064,1576)" d="m0 0h1l1 5 2-1v2h2l4 5-1 6-3 1-5-6-1-2z" fill="#F69B17"/>
<path transform="translate(348,1188)" d="m0 0 5 1-1 3-5 1-3-1-4 3h-4l-3-1v-4l2-1h11z" fill="#E6762E"/>
<path transform="translate(1035,1666)" d="m0 0 20 2-1 2-8 2-1-1h-11l-3-2 1-2z" fill="#E7772F"/>
<path transform="translate(1051,776)" d="m0 0 2 2-4 5-7 9h-2v3l-3 1 1-7 12-12z" fill="#E6762E"/>
<path transform="translate(297,1327)" d="m0 0h2l1 4v3l-2 1v3h-2l-1 6-3 3h-1l1-7 3-7 1-5z" fill="#E6762E"/>
<path transform="translate(1011,829)" d="m0 0h1v5l-12 15-6 8h-2l2-5h2l2-5 7-9 5-7z" fill="#E87224"/>
<path transform="translate(1165,1649)" d="m0 0h5v2l-4 2v3l-5 2-3-3-1-3 3-2z" fill="#E56925"/>
<path transform="translate(892,1650)" d="m0 0 7 1 2 1 17 1v2l-6 1-1-1h-7l-2 1v-2l-5 1h-1l-1-2-5-1z" fill="#E7782D"/>
<path transform="translate(1078,741)" d="m0 0 3 2-3 4h-2l-4 8-4 1v3h-2l2-5 2-2 1-4 5-5z" fill="#E6762E"/>
<path transform="translate(1385,1720)" d="m0 0 4 2 2 7 2 3-1 3-4-2v-3l-2-1-2-7z" fill="#E46327"/>
<path transform="translate(1064,759)" d="m0 0h2l-2 6-4 2-4 8-4 1 4-9 6-6h2z" fill="#E7772F"/>
<path transform="translate(1370,1704)" d="m0 0 2 1v2l3 1 6 12-1 5-2-3-8-16z" fill="#E97222"/>
<path transform="translate(314,1313)" d="m0 0 1 2 4 2 1 3h-2v2l-4-1-2-2-3-1 3-3h2z" fill="#E7772F"/>
<path transform="translate(1280,1787)" d="m0 0h23v1l-8 1-13 1-4-2z" fill="#E6742E"/>
<path transform="translate(1100,1704)" d="m0 0 14 1v2l-11 1-2-1v7h-1l-1-9z" fill="#E76F25"/>
<path transform="translate(1052,779)" d="m0 0 1 3-10 12-3 3v-5l5-5z" fill="#E97423"/>
<path transform="translate(990,1789)" d="m0 0h10l-2 4-4 2-4-1-1-2z" fill="#E7772F"/>
<path transform="translate(1094,721)" d="m0 0 2 4-8 10-3 1v-3h2l2-6h2l1-3h2z" fill="#E7772F"/>
<path transform="translate(1029,1761)" d="m0 0 2 1 1 5-5 1-8-1 1-2h6v-2h3z" fill="#E46527"/>
<path transform="translate(352,1178)" d="m0 0h7l2 1-2 5-4 1-1-3-2-1h2v-2z" fill="#E7772F"/>
<path transform="translate(449,1174)" d="m0 0 2 1v5l2 1-1 3-5 1v-7z" fill="#E7772F"/>
<path transform="translate(1016,1563)" d="m0 0h20l-1 2-16-1-2 5-2 1v-6z" fill="#E66B24"/>
<path transform="translate(1071,1762)" d="m0 0h2v6l-13-1v-1l7-1z" fill="#E46628"/>
<path transform="translate(1206,1720)" d="m0 0 3 3-1 3v-2h-2v23h-1v-25z" fill="#F79E16"/>
<path transform="translate(339,1337)" d="m0 0h4l1 5-4 4-2-3z" fill="#E7772F"/>
<path transform="translate(1070,755)" d="m0 0h2l-1 4-6 8-1-4 2-4h2v-3z" fill="#E76F24"/>
<path transform="translate(1080,744)" d="m0 0 1 3-8 10h-1v-5l4-5z" fill="#E87223"/>
<path transform="translate(1097,723)" d="m0 0 1 3-9 11-1-4z" fill="#E97523"/>
<path transform="translate(814,1705)" d="m0 0h14l-1 3-11-1v2h-2z" fill="#E46327"/>
<path transform="translate(877,1553)" d="m0 0h3l-2 4-9 4-2-1z" fill="#E7772F"/>
<path transform="translate(334,1213)" d="m0 0 3 2-1 3-3 1-1 2h-4v-2h2l2-4h2z" fill="#E6762E"/>
<path transform="translate(1287,1761)" d="m0 0 2 4 1 3-13-1v-1l9-1z" fill="#E56827"/>
<path transform="translate(346,1178)" d="m0 0 5 1-1 5h-4v-2l-3-1z" fill="#E7772F"/>
<path transform="translate(1030,801)" d="m0 0 2 4-6 7-2-1 2-4z" fill="#E7772F"/>
<path transform="translate(1115,699)" d="m0 0 1 3-7 10-2-2v-3l4-2z" fill="#E97424"/>
<path transform="translate(1278,1705)" d="m0 0h12v3l-14-1z" fill="#E87325"/>
<path transform="translate(970,1762)" d="m0 0 4 1v2l4 2h-10z" fill="#E46327"/>
<path transform="translate(725,1678)" d="m0 0 5 1v1l5 1v1h-12v-2z" fill="#E7772F"/>
<path transform="translate(286,1336)" d="m0 0 1 3-1 5-4-2 1-5z" fill="#E7772F"/>
<path transform="translate(266,1337)" d="m0 0 4 1v3l-5 2-2-4z" fill="#E7772F"/>
<path transform="translate(336,1151)" d="m0 0 2 2v5l-4 1-2-1v-2h2v-3h2z" fill="#E46327"/>
<path transform="translate(1014,822)" d="m0 0 4 1-1 4-2 2-3-1 1-4z" fill="#E87629"/>
</svg>
